<svg width="88" height="122" viewBox="0 0 88 122" fill="none" xmlns="http://www.w3.org/2000/svg">
<path d="M18.1966 5.94547C2.22671 14.873 -3.47683 31.9404 3.36741 50.0581C7.07471 60.0359 14.7745 64.7623 36.1628 70.2764C45.2884 72.6395 55.2696 77.1033 58.1214 79.9916C64.6804 87.0812 64.3953 101.785 57.551 108.087C46.9995 117.802 32.1703 117.54 5.36365 107.037C1.65635 105.724 0.230469 106.249 0.230469 109.4C0.230469 115.439 28.7482 122.266 47.855 120.953C65.8211 119.378 76.6579 113.339 83.7873 99.6848C94.9092 78.9413 80.6503 54.2593 54.1289 48.2201C27.3223 41.9183 17.3411 31.1527 26.1816 16.9736C33.5962 4.89517 51.5623 3.31972 76.6579 12.7724C78.3689 13.5602 80.08 12.5099 80.08 10.1467C80.08 0.431398 33.5962 -2.7195 18.1966 5.94547ZM16.2004 34.041C18.1966 43.4937 27.6074 49.5329 46.9995 54.2593C70.9543 60.2985 78.0838 67.388 78.3689 84.718C78.6541 93.1204 77.2282 99.1596 74.3765 101.785C70.384 105.199 70.0988 104.674 70.9543 95.221C72.9506 77.3659 62.399 67.9132 32.4555 61.0862C13.3486 56.6225 3.65259 39.5551 10.782 22.4877C12.7783 18.0239 13.0634 18.0239 13.919 23.0129C14.2041 25.9012 15.3448 30.8901 16.2004 34.041Z" fill="#E0E5EC"/>
</svg>
