<svg width="180" height="180" viewBox="0 0 180 180" fill="none" xmlns="http://www.w3.org/2000/svg">
    <path d="M64.1966 34.9455C48.2267 43.873 42.5232 60.9404 49.3674 79.0581C53.0747 89.0359 60.7745 93.7623 82.1628 99.2764C91.2884 101.64 101.27 106.103 104.121 108.992C110.68 116.081 110.395 130.785 103.551 137.087C92.9995 146.802 78.1703 146.54 51.3637 136.037C47.6564 134.724 46.2305 135.249 46.2305 138.4C46.2305 144.439 74.7482 151.266 93.855 149.953C111.821 148.378 122.658 142.339 129.787 128.685C140.909 107.941 126.65 83.2593 100.129 77.2201C73.3223 70.9183 63.3411 60.1527 72.1816 45.9736C79.5962 33.8952 97.5623 32.3197 122.658 41.7724C124.369 42.5602 126.08 41.5099 126.08 39.1467C126.08 29.4314 79.5962 26.2805 64.1966 34.9455ZM62.2004 63.041C64.1966 72.4937 73.6074 78.5329 92.9995 83.2593C116.954 89.2985 124.084 96.388 124.369 113.718C124.654 122.12 123.228 128.16 120.376 130.785C116.384 134.199 116.099 133.674 116.954 124.221C118.951 106.366 108.399 96.9132 78.4555 90.0862C59.3486 85.6225 49.6526 68.5551 56.782 51.4877C58.7783 47.0239 59.0634 47.0239 59.919 52.0129C60.2041 54.9012 61.3448 59.8901 62.2004 63.041Z"
          fill="#E0E5EC"/>
</svg>
