<svg width="50" height="71" viewBox="0 0 88 121" fill="none" xmlns="http://www.w3.org/2000/svg">
    <path
            d="M17.9661 5.06266C1.99624 13.9902 -3.7073 31.0576 3.13695 49.1753C6.84424 59.1531 14.544 63.8795 35.9323 69.3935C45.0579 71.7567 55.0391 76.2205 57.8909 79.1088C64.45 86.1984 64.1648 100.903 57.3206 107.204C46.769 116.92 31.9398 116.657 5.13318 106.154C1.42588 104.841 0 105.366 0 108.517C0 114.556 28.5177 121.383 47.6245 120.071C65.5907 118.495 76.4274 112.456 83.5568 98.802C94.6787 78.0585 80.4199 53.3765 53.8984 47.3372C27.0918 41.0354 17.1106 30.2699 25.9511 16.0908C33.3657 4.01236 51.3318 2.43691 76.4274 11.8896C78.1385 12.6773 79.8495 11.627 79.8495 9.26386C79.8495 -0.451415 33.3657 -3.60232 17.9661 5.06266ZM15.9699 33.1582C17.9661 42.6109 27.377 48.6501 46.769 53.3765C70.7239 59.4157 77.8533 66.5052 78.1385 83.8352C78.4236 92.2376 76.9978 98.2768 74.146 100.903C70.1535 104.316 69.8683 103.791 70.7239 94.3382C72.7201 76.4831 62.1686 67.0304 32.225 60.2034C13.1181 55.7396 3.42212 38.6723 10.5515 21.6049C12.5478 17.1411 12.833 17.1411 13.6885 22.13C13.9737 25.0184 15.1144 30.0073 15.9699 33.1582Z"
            fill="#333333"/>
</svg>